{"title":"Yeh Jo Mohabbat Hai 2012 Hindi 720p DvDrip x264 ...Hon3y","uid":7813006,"size":1221164721,"categoryP":"video","categoryS":"hd___movies","magnet":"?xt=urn:btih:595103d04fd7b21f5fd11d45cabdd17cc675421e&amp;dn=Yeh+Jo+Mohabbat+Hai+2012+Hindi+720p+DvDrip+x264+...Hon3y&amp;tr=udp%3A%2F%2Ftracker.openbittorrent.com%3A80&amp;tr=udp%3A%2F%2Fopen.demonii.com%3A1337&amp;tr=udp%3A%2F%2Ftracker.coppersurfer.tk%3A6969&amp;tr=udp%3A%2F%2Fexodus.desync.com%3A6969","seeders":0,"leechers":2,"uploader":null,"files":-1,"time":1352579824,"description":"                    &lt;a href=&quot; http://www.imdb.com/title/tt2155776/&quot; rel=&quot;nofollow&quot; target=&quot;_NEW&quot;&gt; http://www.imdb.com/title/tt2155776/&lt;/a&gt;\n\n               &lt;a href=&quot; http://en.wikipedia.org/wiki/Yeh_Jo_Mohabbat_Hai&quot; rel=&quot;nofollow&quot; target=&quot;_NEW&quot;&gt; http://en.wikipedia.org/wiki/Yeh_Jo_Mohabbat_Hai&lt;/a&gt;\n\nSource                                   : DVD9\nFormat                                   : Matroska\nFormat version                           : Version 2\nFile size                                : 1.12 GiB\nDuration                                 : 2h 21mn\nOverall bit rate                         : 1 139 Kbps\n\nVideo\nID                                       : 1\nFormat                                   : AVC\nFormat/Info                              : Advanced Video Codec\nFormat profile                           : &lt;a class=&quot;__cf_email__&quot; href=&quot;/cdn-cgi/l/email-protection&quot; data-cfemail=&quot;662e0f010e262a554857&quot;&gt;[email&amp;#160;protected]&lt;/a&gt;&lt;script cf-hash='f9e31' type=&quot;text/javascript&quot;&gt;\n/* &lt;![CDATA[ */!function(){try{var t=&quot;currentScript&quot;in document?document.currentScript:function(){for(var t=document.getElementsByTagName(&quot;script&quot;),e=t.length;e--;)if(t[e].getAttribute(&quot;cf-hash&quot;))return t[e]}();if(t&amp;&amp;t.previousSibling){var e,r,n,i,c=t.previousSibling,a=c.getAttribute(&quot;data-cfemail&quot;);if(a){for(e=&quot;&quot;,r=parseInt(a.substr(0,2),16),n=2;a.length-n;n+=2)i=parseInt(a.substr(n,2),16)^r,e+=String.fromCharCode(i);e=document.createTextNode(e),c.parentNode.replaceChild(e,c)}}}catch(u){}}();/* ]]&gt; */&lt;/script&gt;\nFormat settings, CABAC                   : Yes\nFormat settings, ReFrames                : 5 frames\nCodec ID                                 : V_MPEG4/ISO/AVC\nDuration                                 : 2h 21mn\nBit rate                                 : 1 000 Kbps\nWidth                                    : 1 280 pixels\nHeight                                   : 544 pixels\nDisplay aspect ratio                     : 2.35:1\nFrame rate                               : 23.976 fps\nColor space                              : YUV\nChroma subsampling                       : 4:2:0\nBit depth                                : 8 bits\nScan type                                : Progressive\nBits/(Pixel*Frame)                       : 0.060\nStream size                              : 999 MiB (87%)\n\nAudio\nID                                       : 2\nFormat                                   : AC-3\nBit rate mode                            : Constant\nBit rate                                 : 128 Kbps\nChannel(s)                               : 2 channels\nChannel positions                        : Front: L R\nSampling rate                            : 44.1 KHz\nBit depth                                : 16 bits\nCompression mode                         : Lossy\nStream size                              : 129 MiB (11%)\nLanguage                                 : Hindi\n\n\nSubtitles\nLanguage                                 : English\nLanguage                                 : Arabic\n &lt;a href=&quot;\nhttp://www.shotpix.com/images/27492347906882444784.png&quot; rel=&quot;nofollow&quot; target=&quot;_NEW&quot;&gt;\nhttp://www.shotpix.com/images/27492347906882444784.png&lt;/a&gt;\n &lt;a href=&quot;\nhttp://www.shotpix.com/images/20049433730832863022.png&quot; rel=&quot;nofollow&quot; target=&quot;_NEW&quot;&gt;\nhttp://www.shotpix.com/images/20049433730832863022.png&lt;/a&gt;\n &lt;a href=&quot;\nhttp://www.shotpix.com/images/00181192620991066011.png&quot; rel=&quot;nofollow&quot; target=&quot;_NEW&quot;&gt;\nhttp://www.shotpix.com/images/00181192620991066011.png&lt;/a&gt;\n &lt;a href=&quot;\nhttp://www.shotpix.com/images/11246977100701015620.png&quot; rel=&quot;nofollow&quot; target=&quot;_NEW&quot;&gt;\nhttp://www.shotpix.com/images/11246977100701015620.png&lt;/a&gt;\n &lt;a href=&quot;\nhttp://www.shotpix.com/images/77315903701319477863.png&quot; rel=&quot;nofollow&quot; target=&quot;_NEW&quot;&gt;\nhttp://www.shotpix.com/images/77315903701319477863.png&lt;/a&gt;\n &lt;a href=&quot;\nhttp://www.shotpix.com/images/32164906915515388618.png&quot; rel=&quot;nofollow&quot; target=&quot;_NEW&quot;&gt;\nhttp://www.shotpix.com/images/32164906915515388618.png&lt;/a&gt;\n &lt;a href=&quot;\nhttp://www.shotpix.com/images/83842167912351319106.png&quot; rel=&quot;nofollow&quot; target=&quot;_NEW&quot;&gt;\nhttp://www.shotpix.com/images/83842167912351319106.png&lt;/a&gt;\n &lt;a href=&quot;\nhttp://www.shotpix.com/images/11854756976427383953.png&quot; rel=&quot;nofollow&quot; target=&quot;_NEW&quot;&gt;\nhttp://www.shotpix.com/images/11854756976427383953.png&lt;/a&gt;\n \n                                 Check The Sample First","torrent":{"xt":"urn:btih:595103d04fd7b21f5fd11d45cabdd17cc675421e","amp;dn":"Yeh+Jo+Mohabbat+Hai+2012+Hindi+720p+DvDrip+x264+...Hon3y","amp;tr":["udp%3A%2F%2Ftracker.openbittorrent.com%3A80","udp%3A%2F%2Fopen.demonii.com%3A1337","udp%3A%2F%2Ftracker.coppersurfer.tk%3A6969","udp%3A%2F%2Fexodus.desync.com%3A6969"],"infoHash":"595103d04fd7b21f5fd11d45cabdd17cc675421e","infoHashBuffer":{"type":"Buffer","data":[89,81,3,208,79,215,178,31,95,209,29,69,202,189,209,124,198,117,66,30]},"announce":[],"urlList":[]}}